<svg width="33" height="29" viewBox="0 0 33 29" fill="none" xmlns="http://www.w3.org/2000/svg">
<path fill-rule="evenodd" clip-rule="evenodd" d="M1.98645 0.195679C1.43417 0.195679 0.98645 0.643394 0.98645 1.19568C0.98645 1.74796 1.43417 2.19568 1.98645 2.19568H6.24785L8.35818 9.16223C8.38414 9.24792 8.42056 9.32756 8.46562 9.40019L8.6552 10.1585L10.7302 18.4585C11.3889 21.0933 13.7563 22.9417 16.4722 22.9417H24.986C27.7019 22.9417 30.0693 21.0933 30.728 18.4585L32.9401 9.60991C33.2514 8.36472 32.3096 7.1585 31.0261 7.1585H10.9975H9.84096L7.94686 0.905765C7.81912 0.484071 7.43042 0.195679 6.9898 0.195679H1.98645ZM13.6406 17.7309L11.7475 10.1585H29.7106L27.8175 17.7309C27.4927 19.0302 26.3253 19.9417 24.986 19.9417H16.4722C15.1329 19.9417 13.9655 19.0302 13.6406 17.7309ZM13.8239 28.8604C14.9135 28.8604 15.7968 27.9771 15.7968 26.8875C15.7968 25.7979 14.9135 24.9146 13.8239 24.9146C12.7343 24.9146 11.851 25.7979 11.851 26.8875C11.851 27.9771 12.7343 28.8604 13.8239 28.8604ZM29.6071 26.8875C29.6071 27.9771 28.7238 28.8604 27.6342 28.8604C26.5446 28.8604 25.6613 27.9771 25.6613 26.8875C25.6613 25.7979 26.5446 24.9146 27.6342 24.9146C28.7238 24.9146 29.6071 25.7979 29.6071 26.8875Z" fill="#7789AB"/>
</svg>
