<svg width="34" height="34" viewBox="0 0 34 34" fill="none" xmlns="http://www.w3.org/2000/svg">
<path d="M20.7778 13.7305C19.7956 13.7305 19.0022 14.6378 19.0022 15.7507C19.0022 16.8635 19.7956 17.7709 20.7778 17.7709C21.76 17.7709 22.5533 16.8635 22.5533 15.7507C22.5533 14.6378 21.76 13.7305 20.7778 13.7305ZM13.2222 13.7305C12.24 13.7305 11.4467 14.6378 11.4467 15.7507C11.4467 16.8635 12.24 17.7709 13.2222 17.7709C14.2044 17.7709 14.9978 16.8635 14.9978 15.7507C14.9978 14.6378 14.2044 13.7305 13.2222 13.7305ZM20.7778 13.7305C19.7956 13.7305 19.0022 14.6378 19.0022 15.7507C19.0022 16.8635 19.7956 17.7709 20.7778 17.7709C21.76 17.7709 22.5533 16.8635 22.5533 15.7507C22.5533 14.6378 21.76 13.7305 20.7778 13.7305ZM13.2222 13.7305C12.24 13.7305 11.4467 14.6378 11.4467 15.7507C11.4467 16.8635 12.24 17.7709 13.2222 17.7709C14.2044 17.7709 14.9978 16.8635 14.9978 15.7507C14.9978 14.6378 14.2044 13.7305 13.2222 13.7305ZM28.3333 -4.57764e-05H5.66667C2.53111 -4.57764e-05 0 2.29408 0 5.13606V25.6805C0 28.5224 2.53111 30.8166 5.66667 30.8166H26.4444L25.7267 28.4026L31.4122 33.5901C32.3756 34.4632 34 33.8469 34 32.6313V5.13606C34 2.29408 31.4689 -4.57764e-05 28.3333 -4.57764e-05ZM27.5211 20.0992C24.9333 22.2393 21.5522 22.2564 21.5522 22.2564L20.74 21.2634C21.5711 21.0066 22.2889 20.6642 23.0256 20.1506L22.8556 19.7397C21.4956 20.3047 19.7389 20.6471 17 20.6471C14.2611 20.6471 12.5044 20.3047 11.1444 19.7397L10.9744 20.1506C11.7111 20.6642 12.4289 21.0066 13.26 21.2634L12.4478 22.2564C12.4478 22.2564 9.06667 22.2393 6.47889 20.0992C6.06333 19.7568 5.89333 19.2261 5.93111 18.7296C6.40333 13.7818 8.08444 10.7858 8.68889 9.86127C8.82111 9.63871 9.01 9.4675 9.23667 9.31342C9.95444 8.88541 11.7489 7.92667 13.9589 7.72123L14.5256 8.76557C15.3378 8.6286 16.2256 8.52588 17 8.52588C17.7556 8.52588 18.6244 8.6286 19.4744 8.76557L20.0411 7.72123C22.1567 7.87531 24.0267 8.86829 24.7633 9.31342C24.99 9.4675 25.1789 9.63871 25.3111 9.86127C25.9156 10.8029 27.5967 13.7818 28.0689 18.7296C28.1067 19.2261 27.9367 19.7568 27.5211 20.0992ZM20.7778 13.7305C19.7956 13.7305 19.0022 14.6378 19.0022 15.7507C19.0022 16.8635 19.7956 17.7709 20.7778 17.7709C21.76 17.7709 22.5533 16.8635 22.5533 15.7507C22.5533 14.6378 21.76 13.7305 20.7778 13.7305ZM13.2222 13.7305C12.24 13.7305 11.4467 14.6378 11.4467 15.7507C11.4467 16.8635 12.24 17.7709 13.2222 17.7709C14.2044 17.7709 14.9978 16.8635 14.9978 15.7507C14.9978 14.6378 14.2044 13.7305 13.2222 13.7305Z" fill="#7789AB"/>
</svg>
