<svg width="32" height="32" viewBox="0 0 32 32" fill="none" xmlns="http://www.w3.org/2000/svg">
<path d="M19.5556 12.9228C18.6311 12.9228 17.8844 13.7768 17.8844 14.8242C17.8844 15.8716 18.6311 16.7256 19.5556 16.7256C20.48 16.7256 21.2267 15.8716 21.2267 14.8242C21.2267 13.7768 20.48 12.9228 19.5556 12.9228ZM12.4444 12.9228C11.52 12.9228 10.7733 13.7768 10.7733 14.8242C10.7733 15.8716 11.52 16.7256 12.4444 16.7256C13.3689 16.7256 14.1156 15.8716 14.1156 14.8242C14.1156 13.7768 13.3689 12.9228 12.4444 12.9228ZM19.5556 12.9228C18.6311 12.9228 17.8844 13.7768 17.8844 14.8242C17.8844 15.8716 18.6311 16.7256 19.5556 16.7256C20.48 16.7256 21.2267 15.8716 21.2267 14.8242C21.2267 13.7768 20.48 12.9228 19.5556 12.9228ZM12.4444 12.9228C11.52 12.9228 10.7733 13.7768 10.7733 14.8242C10.7733 15.8716 11.52 16.7256 12.4444 16.7256C13.3689 16.7256 14.1156 15.8716 14.1156 14.8242C14.1156 13.7768 13.3689 12.9228 12.4444 12.9228ZM26.6667 0H5.33333C2.38222 0 0 2.15918 0 4.83398V24.1699C0 26.8447 2.38222 29.0039 5.33333 29.0039H24.8889L24.2133 26.7319L29.5644 31.6142C30.4711 32.436 32 31.8559 32 30.7119V4.83398C32 2.15918 29.6178 0 26.6667 0ZM25.9022 18.917C23.4667 20.9311 20.2844 20.9472 20.2844 20.9472L19.52 20.0127C20.3022 19.771 20.9778 19.4487 21.6711 18.9653L21.5111 18.5786C20.2311 19.1103 18.5778 19.4326 16 19.4326C13.4222 19.4326 11.7689 19.1103 10.4889 18.5786L10.3289 18.9653C11.0222 19.4487 11.6978 19.771 12.48 20.0127L11.7156 20.9472C11.7156 20.9472 8.53333 20.9311 6.09778 18.917C5.70667 18.5947 5.54667 18.0952 5.58222 17.6279C6.02667 12.9712 7.60889 10.1514 8.17778 9.28124C8.30222 9.07177 8.48 8.91063 8.69333 8.76561C9.36889 8.36278 11.0578 7.46044 13.1378 7.26708L13.6711 8.24999C14.4356 8.12108 15.2711 8.0244 16 8.0244C16.7111 8.0244 17.5289 8.12108 18.3289 8.24999L18.8622 7.26708C20.8533 7.4121 22.6133 8.34667 23.3067 8.76561C23.52 8.91063 23.6978 9.07177 23.8222 9.28124C24.3911 10.1675 25.9733 12.9712 26.4178 17.6279C26.4533 18.0952 26.2933 18.5947 25.9022 18.917ZM19.5556 12.9228C18.6311 12.9228 17.8844 13.7768 17.8844 14.8242C17.8844 15.8716 18.6311 16.7256 19.5556 16.7256C20.48 16.7256 21.2267 15.8716 21.2267 14.8242C21.2267 13.7768 20.48 12.9228 19.5556 12.9228ZM12.4444 12.9228C11.52 12.9228 10.7733 13.7768 10.7733 14.8242C10.7733 15.8716 11.52 16.7256 12.4444 16.7256C13.3689 16.7256 14.1156 15.8716 14.1156 14.8242C14.1156 13.7768 13.3689 12.9228 12.4444 12.9228Z" fill="#C7F022"/>
</svg>
