<svg width="32" height="32" viewBox="0 0 32 32" fill="none" xmlns="http://www.w3.org/2000/svg">
<path d="M17.3333 26.6666V24C17.3333 20.3181 14.3485 17.3333 10.6667 17.3333C6.98477 17.3333 4 20.3181 4 24V26.6666H17.3333ZM17.3333 26.6666H28V25.3333C28 21.406 25.0152 18.6666 21.3333 18.6666C19.4489 18.6666 17.7471 19.5006 16.5345 20.8414M14.6667 9.33331C14.6667 11.5424 12.8758 13.3333 10.6667 13.3333C8.45753 13.3333 6.66667 11.5424 6.66667 9.33331C6.66667 7.12418 8.45753 5.33331 10.6667 5.33331C12.8758 5.33331 14.6667 7.12418 14.6667 9.33331ZM24 12C24 13.4728 22.8061 14.6666 21.3333 14.6666C19.8605 14.6666 18.6667 13.4728 18.6667 12C18.6667 10.5272 19.8605 9.33331 21.3333 9.33331C22.8061 9.33331 24 10.5272 24 12Z" stroke="white" stroke-width="2" stroke-linecap="round" stroke-linejoin="round"/>
</svg>
