<svg width="32" height="32" viewBox="0 0 32 32" fill="none" xmlns="http://www.w3.org/2000/svg">
<path d="M23.3334 16C27.3834 16 30.6667 19.2832 30.6667 23.3333C30.6667 27.3834 27.3834 30.6667 23.3334 30.6667C19.2833 30.6667 16 27.3834 16 23.3333C16 19.2832 19.2833 16 23.3334 16ZM23.3334 18.6656L23.2135 18.6764C22.9414 18.7258 22.7268 18.9404 22.6774 19.2125L22.6667 19.3323L22.6662 22.6656L19.3302 22.6667L19.2104 22.6774C18.9383 22.7268 18.7237 22.9414 18.6743 23.2135L18.6636 23.3333L18.6743 23.4532C18.7237 23.7253 18.9383 23.9399 19.2104 23.9893L19.3302 24L22.6676 23.999L22.6682 27.338L22.6789 27.4578C22.7283 27.7299 22.9429 27.9445 23.215 27.9939L23.3348 28.0046L23.4547 27.9939C23.7268 27.9445 23.9414 27.7299 23.9908 27.4578L24.0015 27.338L24.0009 23.999L27.3394 24L27.4593 23.9893C27.7314 23.9399 27.946 23.7253 27.9954 23.4532L28.0061 23.3333L27.9954 23.2135C27.946 22.9414 27.7314 22.7268 27.4593 22.6774L27.3394 22.6667L23.9996 22.6656L24 19.3323L23.9893 19.2125C23.9399 18.9404 23.7253 18.7258 23.4532 18.6764L23.3334 18.6656ZM19.0054 13.3333C20.1181 13.3333 21.0893 13.9391 21.6073 14.8389C20.896 14.9824 20.2175 15.2128 19.582 15.5184C19.4198 15.4013 19.2205 15.3333 19.0054 15.3333H13.0026C12.4503 15.3333 12.0026 15.781 12.0026 16.3333V21.9986C12.0026 23.8798 13.3008 25.4578 15.0502 25.8856C15.2806 26.6397 15.613 27.3504 16.0301 28.0016L16.004 28C12.6895 28 10.0026 25.3131 10.0026 21.9986V16.3333C10.0026 14.6765 11.3457 13.3333 13.0026 13.3333H19.0054ZM9.87529 13.3337C9.34905 13.8822 8.96571 14.5688 8.7851 15.3338L5.66669 15.3333C5.1144 15.3333 4.66669 15.781 4.66669 16.3333V19.9983C4.66669 21.8402 6.15981 23.3333 8.00167 23.3333C8.26833 23.3333 8.52767 23.302 8.77624 23.2429C8.88918 23.9148 9.09543 24.5556 9.37984 25.152C8.94105 25.2707 8.47867 25.3333 8.00167 25.3333C5.05524 25.3333 2.66669 22.9448 2.66669 19.9983V16.3333C2.66669 14.7455 3.90024 13.4458 5.46129 13.3403L5.66669 13.3333L9.87529 13.3337ZM26.3334 13.3333C27.9902 13.3333 29.3334 14.6765 29.3334 16.3333L29.3344 17.0805C27.7772 15.5855 25.6626 14.6667 23.3334 14.6667L23.0064 14.6727C22.8013 14.1722 22.5022 13.7189 22.1327 13.3337L26.3334 13.3333ZM24.6667 5.33333C26.5076 5.33333 28 6.82572 28 8.66667C28 10.5076 26.5076 12 24.6667 12C22.8257 12 21.3334 10.5076 21.3334 8.66667C21.3334 6.82572 22.8257 5.33333 24.6667 5.33333ZM16 4C18.2092 4 20 5.79086 20 8C20 10.2091 18.2092 12 16 12C13.7909 12 12 10.2091 12 8C12 5.79086 13.7909 4 16 4ZM7.33335 5.33333C9.1743 5.33333 10.6667 6.82572 10.6667 8.66667C10.6667 10.5076 9.1743 12 7.33335 12C5.4924 12 4.00002 10.5076 4.00002 8.66667C4.00002 6.82572 5.4924 5.33333 7.33335 5.33333ZM24.6667 7.33333C23.9303 7.33333 23.3334 7.93029 23.3334 8.66667C23.3334 9.40305 23.9303 10 24.6667 10C25.4031 10 26 9.40305 26 8.66667C26 7.93029 25.4031 7.33333 24.6667 7.33333ZM16 6C14.8955 6 14 6.89543 14 8C14 9.10457 14.8955 10 16 10C17.1046 10 18 9.10457 18 8C18 6.89543 17.1046 6 16 6ZM7.33335 7.33333C6.59697 7.33333 6.00002 7.93029 6.00002 8.66667C6.00002 9.40305 6.59697 10 7.33335 10C8.06973 10 8.66669 9.40305 8.66669 8.66667C8.66669 7.93029 8.06973 7.33333 7.33335 7.33333Z" fill="white"/>
</svg>
