<svg width="34" height="34" viewBox="0 0 34 34" fill="none" xmlns="http://www.w3.org/2000/svg">
<path d="M17 0C7.61175 0 0 7.61175 0 17C0 26.3882 7.61175 34 17 34C26.3882 34 34 26.3882 34 17C34 7.61175 26.3882 0 17 0ZM12.75 25.5C8.05517 25.5 4.25 21.6948 4.25 17C4.25 12.3052 8.05517 8.5 12.75 8.5C14.96 8.5 16.9731 9.34433 18.4833 10.7284L16.4517 12.7174C15.4587 11.8561 14.1667 11.3333 12.75 11.3333C9.62058 11.3333 7.08333 13.8706 7.08333 17C7.08333 20.1294 9.62058 22.6667 12.75 22.6667C15.5564 22.6667 17.8812 20.6238 18.3317 17.9449H12.75V15.1116H21.0276L21.0743 15.3C21.1877 15.8497 21.25 16.4177 21.25 17C21.25 21.6948 17.4448 25.5 12.75 25.5ZM28.3333 18.4167V21.25H25.5V18.4167H22.6667V15.5833H25.5V12.75H28.3333V15.5833H31.1667V18.4167H28.3333Z" fill="#7789AB"/>
</svg>
