<svg width="138" height="26" viewBox="0 0 138 26" fill="none" xmlns="http://www.w3.org/2000/svg">
<g filter="url(#filter0_d_170_98)">
<path d="M7.928 19C5.456 19 3.44 16.984 3.44 14.512V5.512C3.44 3.016 5.456 0.999999 7.928 0.999999H19.808C20.312 0.999999 20.72 1.408 20.72 1.912V4.168C20.72 4.648 20.312 5.056 19.808 5.056H10.184C8.936 5.056 7.928 6.064 7.928 7.312V12.712C7.928 13.936 8.936 14.944 10.184 14.944H19.808C20.312 14.944 20.72 15.352 20.72 15.856V18.112C20.72 18.592 20.312 19 19.808 19H7.928ZM47.9923 6.088C47.9923 5.776 47.7043 5.488 47.3923 5.488H46.6243C46.1443 5.488 45.7363 5.104 45.7363 4.6V1.888C45.7363 1.408 46.1443 0.999999 46.6243 0.999999H49.3363C49.8403 0.999999 50.2243 1.408 50.2243 1.888V5.056C50.2243 5.344 50.1763 5.632 50.0323 5.872L49.1443 7.648C49.0723 7.768 48.9523 7.84 48.8083 7.84H48.3523C48.1363 7.84 47.9923 7.672 47.9923 7.48V6.088ZM71.0399 0.999999C71.5439 0.999999 71.9279 1.408 71.9279 1.912V4.168C71.9279 4.648 71.5439 5.056 71.0399 5.056C71.0399 5.056 56.4719 5.056 53.3519 5.056C53.2079 5.056 53.0399 4.984 52.9439 4.864C52.8479 4.744 52.7999 4.6 52.8239 4.432C53.1599 2.488 55.0319 0.999999 57.2639 0.999999H71.0399ZM67.8959 19H53.6639C53.1839 19 52.7759 18.592 52.7759 18.112V15.856C52.7759 15.352 53.1839 14.944 53.6639 14.944H66.9839C67.4879 14.944 67.8959 14.56 67.8959 14.056V12.664C67.8959 12.16 67.4879 11.752 66.9839 11.752H57.2639C55.0319 11.752 53.1839 10.288 52.8479 8.368C52.7999 8.152 52.7999 7.72 53.4239 7.72H67.8959C70.3679 7.72 72.3839 9.736 72.3839 12.208V14.512C72.3839 16.984 70.3679 19 67.8959 19ZM106.138 19C105.61 19 105.202 18.568 105.226 18.04L106.306 1.84C106.354 1.384 106.738 0.999999 107.218 0.999999H112.378C114.442 0.999999 116.242 2.416 116.746 4.408L116.89 5.056L119.29 14.608C119.338 14.8 119.506 14.944 119.722 14.944H120.106C120.298 14.944 120.49 14.8 120.538 14.608L123.082 4.408C123.586 2.416 125.386 0.999999 127.45 0.999999H132.61C133.066 0.999999 133.474 1.384 133.498 1.84L134.578 18.04C134.626 18.568 134.194 19 133.69 19H130.978C130.498 19 130.114 18.64 130.066 18.184L128.986 5.44C128.962 5.224 128.77 5.056 128.554 5.056H127.882C127.69 5.056 127.522 5.2 127.474 5.368L124.426 17.632C124.21 18.448 123.49 19 122.674 19H117.154C116.314 19 115.594 18.448 115.402 17.632L112.354 5.368C112.306 5.2 112.138 5.056 111.946 5.056H111.25C111.034 5.056 110.866 5.224 110.842 5.44L109.738 18.184C109.69 18.64 109.306 19 108.85 19H106.138Z" fill="white"/>
<path d="M24.3699 19C23.8899 19 23.4819 18.592 23.4819 18.112V1.912C23.4819 1.408 23.8899 0.999999 24.3699 0.999999H27.0819C27.5859 0.999999 27.9699 1.408 27.9699 1.912V18.112C27.9699 18.592 27.5859 19 27.0819 19H24.3699ZM30.5379 11.752C30.0339 11.752 29.6259 11.368 29.6259 10.864V8.608C29.6259 8.104 30.0339 7.72 30.5379 7.72H37.6659C38.1699 7.72 38.5779 7.312 38.5779 6.808V1.912C38.5779 1.408 38.9859 0.999999 39.4659 0.999999H42.1779C42.6819 0.999999 43.0659 1.408 43.0659 1.912V18.112C43.0659 18.592 42.6819 19 42.1779 19H39.4659C38.9859 19 38.5779 18.592 38.5779 18.112V12.664C38.5779 12.16 38.1699 11.752 37.6659 11.752H30.5379ZM84.698 19C84.218 19 83.81 18.592 83.81 18.112V9.16C83.81 8.656 84.218 8.248 84.698 8.248H96.602C97.106 8.248 97.514 7.84 97.514 7.36V5.968C97.514 5.464 97.106 5.056 96.602 5.056H84.698C84.218 5.056 83.81 4.648 83.81 4.168V1.912C83.81 1.408 84.218 0.999999 84.698 0.999999H97.514C99.986 0.999999 102.002 3.016 102.002 5.512V7.792C102.002 9.448 101.114 10.912 99.77 11.68C99.554 11.8 99.482 12.088 99.602 12.304L102.722 17.656C103.082 18.256 102.65 19 101.954 19H98.522C98.21 19 97.922 18.832 97.754 18.544L94.658 12.736C94.514 12.472 94.202 12.304 93.89 12.304H89.21C88.706 12.304 88.298 12.712 88.298 13.192V18.112C88.298 18.592 87.914 19 87.41 19H84.698Z" fill="#C7F022"/>
</g>
<defs>
<filter id="filter0_d_170_98" x="0.440002" y="1" width="137.186" height="24" filterUnits="userSpaceOnUse" color-interpolation-filters="sRGB">
<feFlood flood-opacity="0" result="BackgroundImageFix"/>
<feColorMatrix in="SourceAlpha" type="matrix" values="0 0 0 0 0 0 0 0 0 0 0 0 0 0 0 0 0 0 127 0" result="hardAlpha"/>
<feOffset dy="3"/>
<feGaussianBlur stdDeviation="1.5"/>
<feComposite in2="hardAlpha" operator="out"/>
<feColorMatrix type="matrix" values="0 0 0 0 0 0 0 0 0 0 0 0 0 0 0 0 0 0 0.3 0"/>
<feBlend mode="normal" in2="BackgroundImageFix" result="effect1_dropShadow_170_98"/>
<feBlend mode="normal" in="SourceGraphic" in2="effect1_dropShadow_170_98" result="shape"/>
</filter>
</defs>
</svg>
