<svg width="177" height="32" viewBox="0 0 177 32" fill="none" xmlns="http://www.w3.org/2000/svg">
<g filter="url(#filter0_d_394_206)">
<path d="M9.63293 24C8.82946 24 8.0775 23.8558 7.37704 23.5674C6.67659 23.2583 6.05853 22.8463 5.52289 22.3313C5.00785 21.7956 4.59581 21.1776 4.28679 20.4771C3.99836 19.7767 3.85415 19.0247 3.85415 18.2212V6.63277C3.85415 5.8293 3.99836 5.07734 4.28679 4.37688C4.59581 3.65582 5.00785 3.03777 5.52289 2.52273C6.05853 1.98709 6.67659 1.57505 7.37704 1.28663C8.0775 0.977602 8.82946 0.823089 9.63293 0.823089H24.9297C25.2593 0.823089 25.5374 0.936398 25.7641 1.16302C25.9907 1.38964 26.104 1.66776 26.104 1.99739V4.90223C26.104 5.21125 25.9907 5.47907 25.7641 5.70569C25.5374 5.93231 25.2593 6.04562 24.9297 6.04562H12.5378C12.1463 6.04562 11.7652 6.12803 11.3944 6.29284C11.0441 6.43705 10.7351 6.64307 10.4673 6.91089C10.2201 7.15811 10.0141 7.45684 9.84925 7.80706C9.70504 8.15729 9.63293 8.53843 9.63293 8.95046V15.9035C9.63293 16.295 9.70504 16.6658 9.84925 17.016C10.0141 17.3663 10.2201 17.6753 10.4673 17.9431C10.7351 18.1903 11.0441 18.3963 11.3944 18.5612C11.7652 18.7054 12.1463 18.7775 12.5378 18.7775H24.9297C25.2593 18.7775 25.5374 18.8908 25.7641 19.1174C25.9907 19.344 26.104 19.6221 26.104 19.9518V22.8566C26.104 23.1656 25.9907 23.4335 25.7641 23.6601C25.5374 23.8867 25.2593 24 24.9297 24H9.63293ZM61.2199 7.37443C61.2199 7.16841 61.1375 6.9933 60.9727 6.84909C60.8285 6.68427 60.6534 6.60187 60.4473 6.60187H59.4585C59.1494 6.60187 58.8816 6.49886 58.655 6.29284C58.4284 6.06622 58.3151 5.7881 58.3151 5.45847V1.96648C58.3151 1.65746 58.4284 1.38964 58.655 1.16302C58.8816 0.936398 59.1494 0.823089 59.4585 0.823089H62.9504C63.2801 0.823089 63.5479 0.936398 63.7539 1.16302C63.9805 1.38964 64.0938 1.65746 64.0938 1.96648V6.04562C64.0938 6.23104 64.0732 6.41645 64.032 6.60187C64.0114 6.76668 63.9496 6.93149 63.8466 7.09631L62.7032 9.3831C62.6002 9.54791 62.456 9.63032 62.2706 9.63032H61.6834C61.5392 9.63032 61.4259 9.58911 61.3435 9.50671C61.2611 9.4037 61.2199 9.29039 61.2199 9.16678V7.37443ZM90.8962 0.823089C91.2259 0.823089 91.4937 0.936398 91.6997 1.16302C91.9263 1.38964 92.0396 1.66776 92.0396 1.99739V4.90223C92.0396 5.21125 91.9263 5.47907 91.6997 5.70569C91.4937 5.93231 91.2259 6.04562 90.8962 6.04562H68.1211C67.8944 6.04562 67.7193 5.96321 67.5957 5.7984C67.4721 5.63359 67.4206 5.44817 67.4412 5.24215C67.5442 4.6241 67.7605 4.04726 68.0902 3.51161C68.4404 2.95536 68.873 2.48153 69.3881 2.09009C69.9031 1.69866 70.48 1.38964 71.1186 1.16302C71.7573 0.936398 72.4371 0.823089 73.1582 0.823089H90.8962ZM68.5228 24C68.2138 24 67.946 23.8867 67.7193 23.6601C67.4927 23.4335 67.3794 23.1656 67.3794 22.8566V19.9518C67.3794 19.6221 67.4927 19.344 67.7193 19.1174C67.946 18.8908 68.2138 18.7775 68.5228 18.7775H85.6737C86.0033 18.7775 86.2815 18.6745 86.5081 18.4684C86.7347 18.2418 86.848 17.9637 86.848 17.6341V15.8417C86.848 15.5121 86.7347 15.234 86.5081 15.0074C86.2815 14.7807 86.0033 14.6674 85.6737 14.6674H73.1582C72.4371 14.6674 71.7573 14.5541 71.1186 14.3275C70.48 14.1009 69.9031 13.8022 69.3881 13.4313C68.8936 13.0399 68.4713 12.5764 68.1211 12.0407C67.7914 11.5051 67.5751 10.9282 67.4721 10.3102C67.4515 10.166 67.4721 9.99085 67.5339 9.78483C67.5957 9.57881 67.8223 9.4758 68.2138 9.4758H86.848C87.6515 9.4758 88.4034 9.63032 89.1039 9.93934C89.8044 10.2278 90.4121 10.6398 90.9271 11.1754C91.4628 11.6905 91.8748 12.2982 92.1632 12.9987C92.4723 13.6992 92.6268 14.4511 92.6268 15.2546V18.2212C92.6268 19.0247 92.4723 19.7767 92.1632 20.4771C91.8748 21.1776 91.4628 21.7956 90.9271 22.3313C90.4121 22.8463 89.8044 23.2583 89.1039 23.5674C88.4034 23.8558 87.6515 24 86.848 24H68.5228ZM136.089 24C135.739 24 135.45 23.8867 135.224 23.6601C134.997 23.4129 134.894 23.1141 134.915 22.7639L136.305 1.90468C136.347 1.61625 136.47 1.36903 136.676 1.16302C136.903 0.936398 137.171 0.823089 137.48 0.823089H144.124C144.783 0.823089 145.411 0.936398 146.009 1.16302C146.627 1.36903 147.183 1.66776 147.677 2.05919C148.172 2.45062 148.594 2.91416 148.944 3.44981C149.315 3.98545 149.583 4.5726 149.748 5.21125L149.933 6.04562L153.024 18.3448C153.106 18.6333 153.291 18.7775 153.58 18.7775H154.074C154.198 18.7775 154.311 18.7363 154.414 18.6539C154.517 18.5715 154.589 18.4684 154.631 18.3448L157.906 5.21125C158.071 4.5726 158.329 3.98545 158.679 3.44981C159.05 2.91416 159.482 2.45062 159.977 2.05919C160.471 1.66776 161.017 1.36903 161.615 1.16302C162.233 0.936398 162.871 0.823089 163.531 0.823089H170.175C170.463 0.823089 170.72 0.936398 170.947 1.16302C171.174 1.36903 171.297 1.61625 171.318 1.90468L172.709 22.7639C172.75 23.1141 172.647 23.4129 172.4 23.6601C172.173 23.8867 171.895 24 171.565 24H168.073C167.764 24 167.496 23.897 167.27 23.691C167.064 23.485 166.94 23.2377 166.899 22.9493L165.508 6.54006C165.467 6.21043 165.282 6.04562 164.952 6.04562H164.087C163.819 6.04562 163.644 6.17953 163.561 6.44735L159.637 22.2386C159.493 22.7742 159.214 23.2068 158.802 23.5365C158.39 23.8455 157.917 24 157.381 24H150.273C149.738 24 149.254 23.8455 148.821 23.5365C148.409 23.2068 148.141 22.7742 148.017 22.2386L144.093 6.44735C144.01 6.17953 143.835 6.04562 143.567 6.04562H142.671C142.362 6.04562 142.187 6.21043 142.146 6.54006L140.724 22.9493C140.683 23.2377 140.549 23.485 140.323 23.691C140.117 23.897 139.869 24 139.581 24H136.089Z" fill="white"/>
<path d="M30.8036 24C30.4946 24 30.2267 23.8867 30.0001 23.6601C29.7735 23.4335 29.6602 23.1656 29.6602 22.8566V1.99739C29.6602 1.66776 29.7735 1.38964 30.0001 1.16302C30.2267 0.936398 30.4946 0.823089 30.8036 0.823089H34.2956C34.6252 0.823089 34.893 0.936398 35.099 1.16302C35.3257 1.38964 35.439 1.66776 35.439 1.99739V22.8566C35.439 23.1656 35.3257 23.4335 35.099 23.6601C34.893 23.8867 34.6252 24 34.2956 24H30.8036ZM38.7455 14.6674C38.4159 14.6674 38.1378 14.5644 37.9112 14.3584C37.6846 14.1318 37.5712 13.8537 37.5712 13.524V10.6192C37.5712 10.2896 37.6846 10.0217 37.9112 9.81573C38.1378 9.58911 38.4159 9.4758 38.7455 9.4758H47.9236C48.2532 9.4758 48.5313 9.36249 48.758 9.13587C48.9846 8.90926 49.0979 8.63113 49.0979 8.30151V1.99739C49.0979 1.66776 49.2112 1.38964 49.4378 1.16302C49.6644 0.936398 49.9323 0.823089 50.2413 0.823089H53.7333C54.0629 0.823089 54.3307 0.936398 54.5367 1.16302C54.7634 1.38964 54.8767 1.66776 54.8767 1.99739V22.8566C54.8767 23.1656 54.7634 23.4335 54.5367 23.6601C54.3307 23.8867 54.0629 24 53.7333 24H50.2413C49.9323 24 49.6644 23.8867 49.4378 23.6601C49.2112 23.4335 49.0979 23.1656 49.0979 22.8566V15.8417C49.0979 15.5121 48.9846 15.234 48.758 15.0074C48.5313 14.7807 48.2532 14.6674 47.9236 14.6674H38.7455ZM108.482 24C108.173 24 107.906 23.8867 107.679 23.6601C107.452 23.4335 107.339 23.1656 107.339 22.8566V11.33C107.339 11.0003 107.452 10.7222 107.679 10.4956C107.906 10.269 108.173 10.1557 108.482 10.1557H123.81C124.14 10.1557 124.418 10.0423 124.644 9.81573C124.871 9.58911 124.984 9.32129 124.984 9.01226V7.21992C124.984 6.89029 124.871 6.61217 124.644 6.38555C124.418 6.15893 124.14 6.04562 123.81 6.04562H108.482C108.173 6.04562 107.906 5.93231 107.679 5.70569C107.452 5.47907 107.339 5.21125 107.339 4.90223V1.99739C107.339 1.66776 107.452 1.38964 107.679 1.16302C107.906 0.936398 108.173 0.823089 108.482 0.823089H124.984C125.788 0.823089 126.54 0.977602 127.24 1.28663C127.941 1.57505 128.548 1.98709 129.064 2.52273C129.599 3.03777 130.011 3.65582 130.3 4.37688C130.609 5.07734 130.763 5.8293 130.763 6.63277V9.56851C130.763 10.6398 130.495 11.6184 129.96 12.5043C129.445 13.3901 128.755 14.0803 127.889 14.5747C127.745 14.6571 127.652 14.7807 127.611 14.9456C127.57 15.0898 127.591 15.234 127.673 15.3782L131.69 22.2695C131.917 22.6609 131.917 23.0523 131.69 23.4438C131.484 23.8146 131.155 24 130.701 24H126.282C125.85 24 125.52 23.8043 125.293 23.4129L121.307 15.9344C121.101 15.5636 120.771 15.3782 120.318 15.3782H114.292C113.962 15.3782 113.684 15.4915 113.458 15.7181C113.231 15.9447 113.118 16.2126 113.118 16.5216V22.8566C113.118 23.1656 113.005 23.4335 112.778 23.6601C112.572 23.8867 112.304 24 111.974 24H108.482Z" fill="#C7F022"/>
</g>
<defs>
<filter id="filter0_d_394_206" x="-0.000661612" y="0.823059" width="176.626" height="30.8865" filterUnits="userSpaceOnUse" color-interpolation-filters="sRGB">
<feFlood flood-opacity="0" result="BackgroundImageFix"/>
<feColorMatrix in="SourceAlpha" type="matrix" values="0 0 0 0 0 0 0 0 0 0 0 0 0 0 0 0 0 0 127 0" result="hardAlpha"/>
<feOffset dy="3.85479"/>
<feGaussianBlur stdDeviation="1.92739"/>
<feComposite in2="hardAlpha" operator="out"/>
<feColorMatrix type="matrix" values="0 0 0 0 0 0 0 0 0 0 0 0 0 0 0 0 0 0 0.3 0"/>
<feBlend mode="normal" in2="BackgroundImageFix" result="effect1_dropShadow_394_206"/>
<feBlend mode="normal" in="SourceGraphic" in2="effect1_dropShadow_394_206" result="shape"/>
</filter>
</defs>
</svg>
