<svg width="134" height="26" viewBox="0 0 134 26" fill="none" xmlns="http://www.w3.org/2000/svg">
<g id="CH&#226;&#128;&#153;S RM" filter="url(#filter0_d_28_18)">
<path d="M5.928 19C3.456 19 1.44 16.984 1.44 14.512V5.512C1.44 3.016 3.456 0.999999 5.928 0.999999H17.808C18.312 0.999999 18.72 1.408 18.72 1.912V4.168C18.72 4.648 18.312 5.056 17.808 5.056H8.184C6.936 5.056 5.928 6.064 5.928 7.312V12.712C5.928 13.936 6.936 14.944 8.184 14.944H17.808C18.312 14.944 18.72 15.352 18.72 15.856V18.112C18.72 18.592 18.312 19 17.808 19H5.928ZM45.9923 6.088C45.9923 5.776 45.7043 5.488 45.3923 5.488H44.6243C44.1443 5.488 43.7363 5.104 43.7363 4.6V1.888C43.7363 1.408 44.1443 0.999999 44.6243 0.999999H47.3363C47.8403 0.999999 48.2243 1.408 48.2243 1.888V5.056C48.2243 5.344 48.1763 5.632 48.0323 5.872L47.1443 7.648C47.0723 7.768 46.9523 7.84 46.8083 7.84H46.3523C46.1363 7.84 45.9923 7.672 45.9923 7.48V6.088ZM69.0399 0.999999C69.5439 0.999999 69.9279 1.408 69.9279 1.912V4.168C69.9279 4.648 69.5439 5.056 69.0399 5.056C69.0399 5.056 54.4719 5.056 51.3519 5.056C51.2079 5.056 51.0399 4.984 50.9439 4.864C50.8479 4.744 50.7999 4.6 50.8239 4.432C51.1599 2.488 53.0319 0.999999 55.2639 0.999999H69.0399ZM65.8959 19H51.6639C51.1839 19 50.7759 18.592 50.7759 18.112V15.856C50.7759 15.352 51.1839 14.944 51.6639 14.944H64.9839C65.4879 14.944 65.8959 14.56 65.8959 14.056V12.664C65.8959 12.16 65.4879 11.752 64.9839 11.752H55.2639C53.0319 11.752 51.1839 10.288 50.8479 8.368C50.7999 8.152 50.7999 7.72 51.4239 7.72H65.8959C68.3679 7.72 70.3839 9.736 70.3839 12.208V14.512C70.3839 16.984 68.3679 19 65.8959 19ZM104.138 19C103.61 19 103.202 18.568 103.226 18.04L104.306 1.84C104.354 1.384 104.738 0.999999 105.218 0.999999H110.378C112.442 0.999999 114.242 2.416 114.746 4.408L114.89 5.056L117.29 14.608C117.338 14.8 117.506 14.944 117.722 14.944H118.106C118.298 14.944 118.49 14.8 118.538 14.608L121.082 4.408C121.586 2.416 123.386 0.999999 125.45 0.999999H130.61C131.066 0.999999 131.474 1.384 131.498 1.84L132.578 18.04C132.626 18.568 132.194 19 131.69 19H128.978C128.498 19 128.114 18.64 128.066 18.184L126.986 5.44C126.962 5.224 126.77 5.056 126.554 5.056H125.882C125.69 5.056 125.522 5.2 125.474 5.368L122.426 17.632C122.21 18.448 121.49 19 120.674 19H115.154C114.314 19 113.594 18.448 113.402 17.632L110.354 5.368C110.306 5.2 110.138 5.056 109.946 5.056H109.25C109.034 5.056 108.866 5.224 108.842 5.44L107.738 18.184C107.69 18.64 107.306 19 106.85 19H104.138Z" fill="white"/>
<path d="M22.3699 19C21.8899 19 21.4819 18.592 21.4819 18.112V1.912C21.4819 1.408 21.8899 0.999999 22.3699 0.999999H25.0819C25.5859 0.999999 25.9699 1.408 25.9699 1.912V18.112C25.9699 18.592 25.5859 19 25.0819 19H22.3699ZM28.5379 11.752C28.0339 11.752 27.6259 11.368 27.6259 10.864V8.608C27.6259 8.104 28.0339 7.72 28.5379 7.72H35.6659C36.1699 7.72 36.5779 7.312 36.5779 6.808V1.912C36.5779 1.408 36.9859 0.999999 37.4659 0.999999H40.1779C40.6819 0.999999 41.0659 1.408 41.0659 1.912V18.112C41.0659 18.592 40.6819 19 40.1779 19H37.4659C36.9859 19 36.5779 18.592 36.5779 18.112V12.664C36.5779 12.16 36.1699 11.752 35.6659 11.752H28.5379ZM82.698 19C82.218 19 81.81 18.592 81.81 18.112V9.16C81.81 8.656 82.218 8.248 82.698 8.248H94.602C95.106 8.248 95.514 7.84 95.514 7.36V5.968C95.514 5.464 95.106 5.056 94.602 5.056H82.698C82.218 5.056 81.81 4.648 81.81 4.168V1.912C81.81 1.408 82.218 0.999999 82.698 0.999999H95.514C97.986 0.999999 100.002 3.016 100.002 5.512V7.792C100.002 9.448 99.114 10.912 97.77 11.68C97.554 11.8 97.482 12.088 97.602 12.304L100.722 17.656C101.082 18.256 100.65 19 99.954 19H96.522C96.21 19 95.922 18.832 95.754 18.544L92.658 12.736C92.514 12.472 92.202 12.304 91.89 12.304H87.21C86.706 12.304 86.298 12.712 86.298 13.192V18.112C86.298 18.592 85.914 19 85.41 19H82.698Z" fill="#C7F022"/>
</g>
<defs>
<filter id="filter0_d_28_18" x="-1.56" y="1" width="137.186" height="24" filterUnits="userSpaceOnUse" color-interpolation-filters="sRGB">
<feFlood flood-opacity="0" result="BackgroundImageFix"/>
<feColorMatrix in="SourceAlpha" type="matrix" values="0 0 0 0 0 0 0 0 0 0 0 0 0 0 0 0 0 0 127 0" result="hardAlpha"/>
<feOffset dy="3"/>
<feGaussianBlur stdDeviation="1.5"/>
<feComposite in2="hardAlpha" operator="out"/>
<feColorMatrix type="matrix" values="0 0 0 0 0 0 0 0 0 0 0 0 0 0 0 0 0 0 0.3 0"/>
<feBlend mode="normal" in2="BackgroundImageFix" result="effect1_dropShadow_28_18"/>
<feBlend mode="normal" in="SourceGraphic" in2="effect1_dropShadow_28_18" result="shape"/>
</filter>
</defs>
</svg>
