<svg width="28" height="28" viewBox="0 0 28 28" fill="none" xmlns="http://www.w3.org/2000/svg">
<path d="M24.615 27.2903C25.3277 28.0552 26.5254 28.0975 27.2903 27.3849C28.0552 26.6723 28.0975 25.4745 27.3849 24.7097L24.615 27.2903ZM19.4647 11.3779C19.4647 15.4559 16.0356 18.8629 11.6788 18.8629V22.6487C18.0129 22.6487 23.2505 17.6585 23.2505 11.3779H19.4647ZM11.6788 18.8629C7.32195 18.8629 3.89287 15.4559 3.89287 11.3779H0.10713C0.10713 17.6585 5.34473 22.6487 11.6788 22.6487V18.8629ZM3.89287 11.3779C3.89287 7.29994 7.32195 3.89287 11.6788 3.89287V0.10713C5.34473 0.10713 0.10713 5.09733 0.10713 11.3779H3.89287ZM11.6788 3.89287C16.0356 3.89287 19.4647 7.29994 19.4647 11.3779H23.2505C23.2505 5.09733 18.0129 0.10713 11.6788 0.10713V3.89287ZM17.4676 19.619L24.615 27.2903L27.3849 24.7097L20.2375 17.0383L17.4676 19.619Z" fill="#7789AB"/>
</svg>
