<svg width="32" height="32" viewBox="0 0 32 32" fill="none" xmlns="http://www.w3.org/2000/svg">
<g clip-path="url(#clip0_486_493)">
<path d="M16 0.924866C14.4171 0.924866 13.1293 2.21268 13.1293 3.79562C13.1293 5.37855 14.4171 6.66637 16 6.66637C17.5829 6.66637 18.8708 5.37855 18.8708 3.79562C18.8708 2.21268 17.583 0.924866 16 0.924866Z" fill="white"/>
<path d="M20.6445 11.3972L19.4263 7.74267C19.2842 7.31661 18.8855 7.02917 18.4364 7.02917H13.5636C13.1144 7.02917 12.7158 7.31655 12.5737 7.74267L11.3555 11.3972C11.1304 12.0726 11.6342 12.7706 12.3454 12.7706H19.6546C20.3666 12.7706 20.8693 12.0719 20.6445 11.3972Z" fill="white"/>
<path d="M4.69869 10.0771C3.11575 10.0771 1.82794 11.365 1.82794 12.9479C1.82794 14.5308 3.11582 15.8186 4.69869 15.8186C6.28157 15.8186 7.56944 14.5308 7.56944 12.9479C7.56944 11.365 6.28163 10.0771 4.69869 10.0771Z" fill="white"/>
<path d="M9.34324 20.5495L8.12499 16.895C7.98293 16.4689 7.58424 16.1815 7.13512 16.1815H2.26224C1.81305 16.1815 1.41443 16.4689 1.27237 16.895L0.0542414 20.5495C-0.170884 21.225 0.332991 21.9229 1.04412 21.9229H8.3533C9.06524 21.9229 9.56805 21.2242 9.34324 20.5495Z" fill="white"/>
<path d="M16.0001 19.2295C14.4171 19.2295 13.1293 20.5173 13.1293 22.1002C13.1293 23.6831 14.4171 24.971 16.0001 24.971C17.583 24.971 18.8708 23.6832 18.8708 22.1002C18.8708 20.5173 17.583 19.2295 16.0001 19.2295Z" fill="white"/>
<path d="M20.6445 29.7017L19.4263 26.0472C19.2843 25.6211 18.8856 25.3337 18.4364 25.3337H13.5636C13.1144 25.3337 12.7158 25.6211 12.5738 26.0472L11.3556 29.7017C11.1304 30.3772 11.6343 31.0751 12.3454 31.0751H19.6546C20.3666 31.0751 20.8694 30.3764 20.6445 29.7017Z" fill="white"/>
<path d="M11.8565 5.01064C11.6058 4.49176 10.9818 4.27445 10.463 4.52526C8.84653 5.30657 7.38122 6.44982 6.22553 7.83132C5.85578 8.27339 5.9144 8.93145 6.3564 9.30126C6.79834 9.67101 7.4564 9.61251 7.82628 9.17039C8.79347 8.0142 10.0193 7.05764 11.3712 6.4042C11.89 6.15339 12.1073 5.52951 11.8565 5.01064Z" fill="white"/>
<path d="M27.3012 10.0772C25.7183 10.0772 24.4305 11.3651 24.4305 12.948C24.4305 14.5308 25.7183 15.8187 27.3012 15.8187C28.8842 15.8187 30.172 14.5309 30.172 12.948C30.172 11.365 28.8842 10.0772 27.3012 10.0772Z" fill="white"/>
<path d="M31.9458 20.5495L30.7277 16.895C30.5856 16.4689 30.1869 16.1815 29.7378 16.1815H24.865C24.4158 16.1815 24.0172 16.4688 23.8752 16.8949L22.6569 20.5495C22.4318 21.2249 22.9357 21.9229 23.6468 21.9229H30.9559C31.6678 21.9229 32.1707 21.2242 31.9458 20.5495Z" fill="white"/>
<path d="M25.7744 7.83138C24.6187 6.44988 23.1534 5.30669 21.5369 4.52532C21.018 4.27463 20.3942 4.49188 20.1433 5.01069C19.8927 5.52951 20.11 6.15338 20.6287 6.40419C21.9807 7.05763 23.2065 8.01419 24.1737 9.17038C24.5435 9.61244 25.2015 9.67088 25.6435 9.30126C26.0855 8.93144 26.1442 8.27338 25.7744 7.83138Z" fill="white"/>
<path d="M25.6436 22.6989C25.2016 22.3291 24.5435 22.3876 24.1737 22.8298C23.2065 23.986 21.9807 24.9425 20.6288 25.596C20.11 25.8467 19.8926 26.4706 20.1435 26.9895C20.3943 27.5085 21.0183 27.7256 21.537 27.4749C23.1535 26.6936 24.6188 25.5503 25.7745 24.1688C26.1442 23.7268 26.0856 23.0687 25.6436 22.6989Z" fill="white"/>
<path d="M11.3712 25.5959C10.0192 24.9424 8.79342 23.9859 7.82623 22.8297C7.45636 22.3876 6.79836 22.3291 6.35636 22.6988C5.91436 23.0686 5.85579 23.7267 6.22561 24.1687C7.38129 25.5502 8.84654 26.6934 10.463 27.4747C10.9822 27.7257 11.6059 27.508 11.8565 26.9894C12.1072 26.4705 11.8899 25.8467 11.3712 25.5959Z" fill="white"/>
</g>
<defs>
<clipPath id="clip0_486_493">
<rect width="32" height="32" fill="white"/>
</clipPath>
</defs>
</svg>
