<svg width="32" height="32" viewBox="0 0 32 32" fill="none" xmlns="http://www.w3.org/2000/svg">
<path opacity="0.15" d="M16 14.6667C18.2092 14.6667 20 12.8758 20 10.6667C20 8.45755 18.2092 6.66669 16 6.66669C13.7908 6.66669 12 8.45755 12 10.6667C12 12.8758 13.7908 14.6667 16 14.6667Z" stroke="white" stroke-width="2"/>
<path d="M3.99998 25.3334H1.33331V24C1.33331 21.515 3.03301 19.4268 5.33331 18.8347M7.99998 14.4391C6.44639 13.89 5.33331 12.4083 5.33331 10.6667C5.33331 8.92506 6.44639 7.44341 7.99998 6.89429M28 25.3334H30.6666V24C30.6666 21.515 28.9669 19.4268 26.6666 18.8347M24 6.89429C25.5536 7.44341 26.6666 8.92506 26.6666 10.6667C26.6666 12.4083 25.5536 13.89 24 14.4391M13.3333 18.6667H18.6666C21.6121 18.6667 24 21.0546 24 24V25.3334H7.99998V24C7.99998 21.0546 10.3878 18.6667 13.3333 18.6667ZM20 10.6667C20 12.8758 18.2092 14.6667 16 14.6667C13.7908 14.6667 12 12.8758 12 10.6667C12 8.45755 13.7908 6.66669 16 6.66669C18.2092 6.66669 20 8.45755 20 10.6667Z" stroke="white" stroke-width="2" stroke-linecap="round" stroke-linejoin="round"/>
</svg>
