<svg width="27" height="29" viewBox="0 0 27 29" fill="none" xmlns="http://www.w3.org/2000/svg">
<path fill-rule="evenodd" clip-rule="evenodd" d="M16.6692 6.3937C16.6692 8.15927 15.238 9.59055 13.4724 9.59055C11.7068 9.59055 10.2755 8.15927 10.2755 6.3937C10.2755 4.62813 11.7068 3.19685 13.4724 3.19685C15.238 3.19685 16.6692 4.62813 16.6692 6.3937ZM19.8661 6.3937C19.8661 9.92484 17.0035 12.7874 13.4724 12.7874C9.94124 12.7874 7.07868 9.92484 7.07868 6.3937C7.07868 2.86256 9.94124 0 13.4724 0C17.0035 0 19.8661 2.86256 19.8661 6.3937ZM7.07874 16.6694C3.16926 16.6694 0 19.8386 0 23.7481V27.4016C0 28.2844 0.715639 29.0001 1.59843 29.0001C2.48121 29.0001 3.19685 28.2844 3.19685 27.4016V23.7481C3.19685 21.6042 4.93483 19.8662 7.07874 19.8662H19.8661C22.0101 19.8662 23.748 21.6042 23.748 23.7481V27.4016C23.748 28.2844 24.4637 29.0001 25.3465 29.0001C26.2292 29.0001 26.9449 28.2844 26.9449 27.4016V23.7481C26.9449 19.8386 23.7756 16.6694 19.8661 16.6694H7.07874Z" fill="#7789AB"/>
</svg>
