<svg width="34" height="34" viewBox="0 0 34 34" fill="none" xmlns="http://www.w3.org/2000/svg">
<path d="M29.9524 -4.57764e-05H4.04762C1.81333 -4.57764e-05 0 1.81329 0 4.04757V29.9523C0 32.1866 1.81333 34 4.04762 34H29.9524C32.1867 34 34 32.1866 34 29.9523V4.04757C34 1.81329 32.1867 -4.57764e-05 29.9524 -4.57764e-05ZM27.2971 23.4761L24.2776 23.4681C24.2776 23.4681 24.2129 23.4761 24.1076 23.4761C23.8648 23.4761 23.3629 23.4114 22.7719 23.0066C21.7114 22.27 20.6995 20.4404 19.8981 20.4404C19.8414 20.4404 19.7929 20.4485 19.7443 20.4647C19.0481 20.6833 18.8376 21.3795 18.8376 22.2295C18.8376 22.529 18.6271 22.6666 18.0605 22.6666H16.4981C14.7495 22.6666 13.0576 22.6261 11.1552 20.5457C8.35429 17.4776 5.73143 12.0214 5.73143 12.0214C5.73143 12.0214 5.58571 11.7057 5.73952 11.5195C5.88524 11.3495 6.22524 11.3333 6.35476 11.3333C6.38714 11.3333 6.40333 11.3333 6.40333 11.3333H9.64143C9.64143 11.3333 9.94095 11.39 10.1595 11.5519C10.3457 11.6895 10.4429 11.9404 10.4429 11.9404C10.4429 11.9404 10.9933 13.009 11.6814 14.2152C12.839 16.2066 13.4624 16.8704 13.9076 16.8704C13.9805 16.8704 14.0533 16.8542 14.1262 16.8138C14.79 16.4495 14.5957 13.5028 14.5957 13.5028C14.5957 13.5028 14.6038 12.4342 14.2557 11.9647C13.9886 11.5923 13.4786 11.4871 13.2519 11.4547C13.0738 11.4304 13.3652 11.0095 13.7538 10.8152C14.2557 10.5723 15.0895 10.5238 16.0933 10.5238H16.579C17.5262 10.54 17.5505 10.6371 17.9229 10.7261C19.04 10.9933 18.6595 12.0376 18.6595 14.539C18.6595 15.3404 18.5138 16.4657 19.0886 16.8461C19.129 16.8704 19.1857 16.8866 19.2586 16.8866C19.631 16.8866 20.4324 16.409 21.7114 14.2476C22.4238 13.0171 22.9743 11.7947 22.9743 11.7947C22.9743 11.7947 23.0957 11.5761 23.2819 11.4628C23.46 11.3576 23.46 11.3576 23.6948 11.3576H23.719C23.9781 11.3576 26.5524 11.3333 27.119 11.3333H27.1838C27.7262 11.3333 28.22 11.3414 28.309 11.6733C28.4386 12.1752 27.9124 13.0738 26.5281 14.9357C24.2452 17.9876 23.9862 17.7609 25.8805 19.5257C27.6938 21.2095 28.0662 22.0271 28.131 22.1323C28.8838 23.379 27.2971 23.4761 27.2971 23.4761Z" fill="#7789AB"/>
</svg>
